# xmcd CD database file
#
# Track frame offsets:
#	150
#	23760
#	47484
#	71292
#	94946
#	116741
#	141940
#	166010
#	189616
#	213155
#
# Disc length: 3159 seconds
#
# Revision: 0
# Processed by: cddbd v1.5.2PL0 Copyright (c) Steve Scherf et al.
# Submitted via: CDex 1.51
#
DISCID=820c550a
DTITLE=Blame - The Turning Point
DYEAR=2006
DGENRE=Drum&Bass
TTITLE0=Sabotage
TTITLE1=Skyline
TTITLE2=Diablo
TTITLE3=Congress
TTITLE4=Red Alert
TTITLE5=Shadows of Technology
TTITLE6=Reign of Fire
TTITLE7=Sparticus
TTITLE8=Desert Planet
TTITLE9=Solar Burn
EXTD=YEAR: 2006
EXTT0=
EXTT1=
EXTT2=
EXTT3=
EXTT4=
EXTT5=
EXTT6=
EXTT7=
EXTT8=
EXTT9=
PLAYORDER=
